<svg xmlns="http://www.w3.org/2000/svg"><symbol id="insta-icon" viewBox="0 0 44.3 44.3"><rect width="40.3" height="40.25" x="2" y="2" fill="none" stroke="#231f20" stroke-miterlimit="10" stroke-width="4" rx="8.8"/><circle cx="22.4" cy="22.4" r="9.5" fill="none" stroke="#231f20" stroke-miterlimit="10" stroke-width="4"/><path fill="#231f20" d="M35 12.4c3.2 0 3.2-5 0-5s-3.2 5 0 5z"/></symbol><symbol id="search" viewBox="0 0 19.2 25.4"><circle cx="8.4" cy="8.4" r="7" fill="none" stroke="#231f20" stroke-miterlimit="10" stroke-width="2.8"/><path fill="none" stroke="#231f20" stroke-linecap="round" stroke-miterlimit="10" stroke-width="3.66" d="M12.3 15.3l5.1 8.3"/></symbol><symbol id="vegan" viewBox="0 0 29.8 29.8"><path d="M13.8 21c-.3-.8-.6-1.8-1-2.8l-.9-3.1c-.3-1.1-.5-2.1-.8-3l-.5-2.2H13c.1.5.2 1.2.3 2s.3 1.5.5 2.3.3 1.6.5 2.4.4 1.5.6 2.1.4-1.3.6-2.1a20.5 20.5 0 0 0 .5-2.4c.2-.8.4-1.6.5-2.3s.3-1.5.4-2h2.3c-.2.7-.3 1.5-.5 2.4s-.5 1.8-.8 2.8a24.3 24.3 0 0 1-.9 3c-.3 1-.6 1.9-1 2.9z"/><circle cx="14.9" cy="14.9" r="12.9" fill="none" stroke="#000" stroke-miterlimit="10" stroke-width="4"/></symbol></svg>