<svg id="Layer_1" data-name="Layer 1" xmlns="http://www.w3.org/2000/svg" width="0.4in" height="0.2in" viewBox="0 0 32 14.5"><title>64</title><path d="M30.5,7.4H21.7l.7,2.5,7.7-.2C31.8,9.7,31.3,7.4,30.5,7.4Z"/><path d="M10.1,11.8H5.9l1.9-1.7,10.5-.3h.3a16.1,16.1,0,0,1-.7-2.5H15.6l2.2-1.8,2.5,8.1a1.3,1.3,0,0,0,1.6.9h0a1.3,1.3,0,0,0,.9-1.6c-.9-3-2.5-7.9-2.9-9.6a1.4,1.4,0,0,0-2-.8L14,5.1H10.8s.3-2.6.3-3.6S10.3-.5,8.8.2L3.6,2.9h.2A2.3,2.3,0,0,1,5.9,4.2l1-.6,1.4-.7c.1-.1.2,0,.2.1L7.9,4.6a2.4,2.4,0,0,1-.6,1.1C6,7.4,1.7,12.8,1.5,13.2s-.2,1.3,2.1,1.3h6.5a1.4,1.4,0,0,0,1.4-1.4h0A1.3,1.3,0,0,0,10.1,11.8Z"/><path d="M5.6,4.6A2.4,2.4,0,0,0,3.4,3.3H3.3A2.3,2.3,0,0,0,1,5.7a2.5,2.5,0,1,0,4.9,0A2.3,2.3,0,0,0,5.6,4.6Z"/></svg>