<svg id="Layer_1" data-name="Layer 1" xmlns="http://www.w3.org/2000/svg" width="0.9in" height="0.9in" viewBox="0 0 64 64"><title>Artboard 2</title><path d="M13.1,46.2a15.1,15.1,0,0,1,1.6-7.1,10.7,10.7,0,0,1,4.5-4.9,12.4,12.4,0,0,1,6.7-1.8,12.5,12.5,0,0,1,9,3.4,13.7,13.7,0,0,1,3.9,9.1v1.9c0,4.1-1.1,7.5-3.5,10A12.1,12.1,0,0,1,26,60.6a12.4,12.4,0,0,1-9.4-3.8c-2.3-2.5-3.5-5.9-3.5-10.2Zm7.3.6a10.9,10.9,0,0,0,1.4,5.9,5,5,0,0,0,4.2,2,5,5,0,0,0,4.1-2c1-1.3,1.5-3.5,1.5-6.5a9.8,9.8,0,0,0-1.5-5.8,4.9,4.9,0,0,0-4.2-2.1,4.8,4.8,0,0,0-4.1,2.1C20.9,41.7,20.4,43.9,20.4,46.8Z"/><circle cx="45.3" cy="26.6" r="11.6"/><circle cx="26.1" cy="10.8" r="6.9"/><path d="M45.3,17.2c6.4,5.7,3.4,18.3,3.4,18.3a9.9,9.9,0,0,0,5.7-13.1C52.3,17.1,45.3,17.2,45.3,17.2Z" fill="#fff"/></svg>