<svg xmlns="http://www.w3.org/2000/svg" id="Layer_1" width="86.4" height="38.4" viewBox="0 0 64 29.3"><path d="M61 14.9H43.2c.4 1.7.9 3.5 1.4 5l15.5-.3c3.6-.1 2.4-4.6.9-4.7zm-41.2 9h-8.6l3.9-3.6 21.2-.4h.6c-.6-1.9-1.1-3.8-1.5-5.1h-4.6l4.5-3.7 5.1 16.4a2.5 2.5 0 0 0 3.2 1.7 2.5 2.5 0 0 0 1.7-3.1c-1.7-6.1-4.9-16-5.8-19.4a2.8 2.8 0 0 0-4-1.7l-7.9 5.2h-6.5s.6-5.3.7-7.3S20.1-.9 17 .5L6.7 5.8h.2a4.8 4.8 0 0 1 4.4 2.7l2-1.2 2.9-1.5c.2-.1.3.1.3.2l-1.1 3.4a9.4 9.4 0 0 1-1.2 2.2C11.5 15 2.8 25.8 2.5 26.6s-.6 2.7 4 2.7h13.3a2.7 2.7 0 0 0 2.7-2.8 2.7 2.7 0 0 0-2.7-2.6z"/><path d="M10.7 9.3a5.1 5.1 0 0 0-4.5-2.7H6a5 5 0 0 0 .2 10 5 5 0 0 0 5-5 5.9 5.9 0 0 0-.5-2.3z"/></svg>