<svg id="Layer_1" data-name="Layer 1" xmlns="http://www.w3.org/2000/svg" width="0.2in" height="0.1in" viewBox="0 0 16 7.1"><title>32</title><path d="M15.1,3.6H10.8l.3,1.2h3.8C15.7,4.7,15.4,3.6,15.1,3.6Z"/><path d="M5.1,5.8H3l1-.9H9.2c-.1-.4-.2-.9-.3-1.2H7.8l1.1-.9,1.2,4a.6.6,0,0,0,.8.4h0a.7.7,0,0,0,.4-.8c-.4-1.5-1.2-3.9-1.4-4.7a.7.7,0,0,0-1-.4L7,2.5H5.4s.2-1.3.2-1.8S5.2-.2,4.4.1L1.9,1.4H2a1.2,1.2,0,0,1,1.1.7l.4-.3.7-.4c.1,0,.1,0,.1.1L4,2.3c0,.2-.1.3-.3.5L.9,6.4c-.1.4-.1.7,1,.7H5.1a.7.7,0,0,0,.7-.7h0A.7.7,0,0,0,5.1,5.8Z"/><path d="M2.9,2.3a1.2,1.2,0,0,0-1.1-.7h0A1.2,1.2,0,0,0,.6,2.8,1.2,1.2,0,0,0,1.8,4,1.2,1.2,0,0,0,3,2.8.7.7,0,0,0,2.9,2.3Z"/></svg>