<svg id="Layer_1" data-name="Layer 1" xmlns="http://www.w3.org/2000/svg" width="0.2in" height="0.2in" viewBox="0 0 16 16"><title>Artboard 4</title><path d="M2.7,11.6a3.4,3.4,0,0,1,.4-1.8A2.4,2.4,0,0,1,4.2,8.5a4.7,4.7,0,0,1,1.7-.4A3.2,3.2,0,0,1,8.2,9a2.9,2.9,0,0,1,.9,2.3v.4a3.3,3.3,0,0,1-.9,2.5,3,3,0,0,1-2.4,1,3,3,0,0,1-2.3-.9,3.7,3.7,0,0,1-.9-2.6Zm1.8.1a2.1,2.1,0,0,0,.4,1.5,1,1,0,0,0,1,.5A1.2,1.2,0,0,0,7,13.2a3.2,3.2,0,0,0,.3-1.6A3.3,3.3,0,0,0,7,10.1a1.4,1.4,0,0,0-1.1-.5,1.2,1.2,0,0,0-1,.5A2.5,2.5,0,0,0,4.5,11.7Z"/><circle cx="10.8" cy="6.6" r="2.9"/><circle cx="6" cy="2.7" r="1.7"/><path d="M10.8,4.3c1.6,1.4.9,4.6.9,4.6a2.6,2.6,0,0,0,1.4-3.3C12.6,4.3,10.8,4.3,10.8,4.3Z" fill="#fff"/></svg>