<svg xmlns="http://www.w3.org/2000/svg" id="Layer_1" width="19.2" height="9.6" viewBox="0 0 16 7.1"><path d="M15.1 3.6h-4.3l.3 1.2h3.8c.8-.1.5-1.2.2-1.2zm-10 2.2H3l1-.9h5.2c-.1-.4-.2-.9-.3-1.2H7.8l1.1-.9 1.2 4a.6.6 0 0 0 .8.4.7.7 0 0 0 .4-.8c-.4-1.5-1.2-3.9-1.4-4.7a.7.7 0 0 0-1-.4L7 2.5H5.4s.2-1.3.2-1.8-.4-.9-1.2-.6L1.9 1.4H2a1.2 1.2 0 0 1 1.1.7l.4-.3.7-.4c.1 0 .1 0 .1.1l-.3.8c0 .2-.1.3-.3.5L.9 6.4c-.1.4-.1.7 1 .7h3.2a.7.7 0 0 0 .7-.7.7.7 0 0 0-.7-.6z"/><path d="M2.9 2.3a1.2 1.2 0 0 0-1.1-.7A1.2 1.2 0 0 0 .6 2.8 1.2 1.2 0 0 0 1.8 4 1.2 1.2 0 0 0 3 2.8a.7.7 0 0 0-.1-.5z"/></svg>