<svg id="Layer_1" data-name="Layer 1" xmlns="http://www.w3.org/2000/svg" width="0.4in" height="0.4in" viewBox="0 0 32 32"><title>Artboard 3</title><path d="M5.1,23.7A8.4,8.4,0,0,1,5.9,20a6.5,6.5,0,0,1,2.3-2.6,6.8,6.8,0,0,1,3.5-.9,6.4,6.4,0,0,1,4.7,1.8,7.6,7.6,0,0,1,2,4.7v.9a7.3,7.3,0,0,1-1.8,5.2A6.2,6.2,0,0,1,11.8,31a6.3,6.3,0,0,1-4.9-1.9,7.4,7.4,0,0,1-1.8-5.3Zm3.8.2A5.3,5.3,0,0,0,9.6,27a2.5,2.5,0,0,0,2.2,1,2.4,2.4,0,0,0,2.1-1,5.8,5.8,0,0,0,.7-3.3,5.5,5.5,0,0,0-.7-3.1,2.5,2.5,0,0,0-2.2-1.1,2.5,2.5,0,0,0-2.1,1.1A5.8,5.8,0,0,0,8.9,23.9Z"/><circle cx="21.7" cy="13.5" r="6"/><circle cx="11.8" cy="5.4" r="3.5"/><path d="M21.7,8.6c3.3,3,1.8,9.5,1.8,9.5a5.1,5.1,0,0,0,2.9-6.7C25.4,8.6,21.7,8.6,21.7,8.6Z" fill="#fff"/></svg>