<svg id="Layer_1" data-name="Layer 1" xmlns="http://www.w3.org/2000/svg" width="0.9in" height="0.4in" viewBox="0 0 64 29.3"><title>logo</title><path d="M61,14.9H43.2c.4,1.7.9,3.5,1.4,5l15.5-.3C63.7,19.5,62.5,15,61,14.9Z"/><path d="M19.8,23.9H11.2l3.9-3.6,21.2-.4h.6c-.6-1.9-1.1-3.8-1.5-5.1H30.8l4.5-3.7,5.1,16.4a2.5,2.5,0,0,0,3.2,1.7h0a2.5,2.5,0,0,0,1.7-3.1c-1.7-6.1-4.9-16-5.8-19.4a2.8,2.8,0,0,0-4-1.7l-7.9,5.2H21.1s.6-5.3.7-7.3S20.1-.9,17,.5L6.7,5.8h.2a4.8,4.8,0,0,1,4.4,2.7l2-1.2,2.9-1.5c.2-.1.3.1.3.2L15.4,9.4a9.4,9.4,0,0,1-1.2,2.2C11.5,15,2.8,25.8,2.5,26.6s-.6,2.7,4,2.7H19.8a2.7,2.7,0,0,0,2.7-2.8h0A2.7,2.7,0,0,0,19.8,23.9Z"/><path d="M10.7,9.3A5.1,5.1,0,0,0,6.2,6.6H6a5,5,0,0,0,.2,10,5,5,0,0,0,5-5A5.9,5.9,0,0,0,10.7,9.3Z"/></svg>