<svg xmlns="http://www.w3.org/2000/svg" id="Layer_1" width="336" height="3.9in" viewBox="0 0 254.2 278.7"><path d="M249.2 39.7h-47.5l3.8 13.3 41.4-.8c9.5-.2 6.3-12.2 2.3-12.5zm-109.7 24h-22.9l10.3-9.6 56.6-1.2h1.5c-1.5-5-2.9-9.9-3.9-13.6h-12.3l12.1-9.9 13.5 43.8a6.9 6.9 0 0 0 8.4 4.6 6.9 6.9 0 0 0 4.7-8.5c-4.6-16.1-13-42.5-15.5-51.6a7.7 7.7 0 0 0-10.8-4.6l-20.9 14-17.2.3L145 8c.4-5.3-4.6-10.4-12.8-6.8l-27.6 14.3h.6a13.2 13.2 0 0 1 11.8 7.2l5.2-3.3 7.7-4a.6.6 0 0 1 .8.7l-3 8.9a19.9 19.9 0 0 1-3.2 5.9c-7.2 9-30.2 37.9-31.1 39.9-1.6 3.6-1.6 7.3 10.8 7.3h35.3a7.3 7.3 0 0 0 7.3-7.4 7.4 7.4 0 0 0-7.3-7z"/><path d="M115.2 24.9a13.3 13.3 0 0 0-11.8-7.2h-.6a13.1 13.1 0 1 0 12.4 7.2zm-66.3 117h9.2v.5a16.4 16.4 0 0 1-3.1 9.3 17.7 17.7 0 0 1-8.6 6.9 32.6 32.6 0 0 1-12.6 2.2q-14.7 0-24-10.2C3.6 143.8.4 133.6.4 120s3.1-23.6 9.3-30.5S24 79.2 33.8 79.2a32.6 32.6 0 0 1 12.6 2.3 17.9 17.9 0 0 1 8.6 7 16.6 16.6 0 0 1 3.1 9.1v.5h-9.2v-.5a9.7 9.7 0 0 0-1.8-5.4 10.6 10.6 0 0 0-5.1-3.9 20.1 20.1 0 0 0-7.8-1.4c-7.9 0-13.8 3.2-17.6 9.4s-5.8 14.1-5.8 23.7 1.9 17.7 5.8 23.9 9.7 9.3 17.5 9.3c5.3 0 9.2-1.1 11.4-3.4a10 10 0 0 0 3.4-7.4zm29.6 16.6h-9.3v-80h9.3zm50.8-14.3h9.2v.6a12.9 12.9 0 0 1-2.9 7.5 19.1 19.1 0 0 1-7.8 5.8 29.2 29.2 0 0 1-11 1.9q-12.7 0-19.5-8.1t-6.9-20.7c0-8.5 2.4-15.6 7.3-21.2a23.4 23.4 0 0 1 18.7-8.4 24 24 0 0 1 11.4 2.7 19.6 19.6 0 0 1 8.1 8.5c2 3.9 3 9.2 3 16.1v3.1H99.5c0 5.9 1.6 10.8 4.8 14.6s7.6 5.8 13.3 5.8c4 0 7-.8 8.9-2.4a6.6 6.6 0 0 0 2.8-5.2zM100.1 125H130v-1.1a16.1 16.1 0 0 0-1.9-7.5 12.1 12.1 0 0 0-5.1-5.4 15.5 15.5 0 0 0-7.6-1.7 13.4 13.4 0 0 0-9.5 4.1c-3 2.8-4.9 6.6-5.8 11.6zm85.5 33.5a27.4 27.4 0 0 1-1.4-7.6c-4 3.9-7.5 6.5-10.3 7.5a23 23 0 0 1-8.3 1.6 16.6 16.6 0 0 1-11.2-4q-4.8-4-4.8-11.1a13.8 13.8 0 0 1 6.7-12.4c4.4-2.9 12.1-5.4 23-7.5l4.9-1v-6.2c0-3.4-1.1-5.8-3.4-7.2a15.4 15.4 0 0 0-8.2-2.1c-3.9 0-6.8.9-9 2.6a7.3 7.3 0 0 0-3.2 5.9v.8h-10.1v-.8c0-2.5 1.1-5 3.1-7.6a20.3 20.3 0 0 1 8.3-5.9 31.4 31.4 0 0 1 11.2-2 32.1 32.1 0 0 1 11 1.9 15.5 15.5 0 0 1 7.2 5.1c1.6 2.2 2.3 6.2 2.3 12V142c0 2.4.1 4.9.2 7.5a34.8 34.8 0 0 0 1.8 9zm-1.4-28l-2.8.8c-9.3 2.2-15.3 4.4-17.9 6.5a8.9 8.9 0 0 0-3.9 7.2 8.1 8.1 0 0 0 1.1 4.1 7.4 7.4 0 0 0 3.5 3 12.2 12.2 0 0 0 4.5 1 15.4 15.4 0 0 0 7.6-2.2 14.8 14.8 0 0 0 5.8-6.1 17.6 17.6 0 0 0 2.1-8.8zm32.7 28h-9.3v-55.4h9.3v9.6a26.5 26.5 0 0 1 5.7-6.7 23.5 23.5 0 0 1 5.7-3.3 21.4 21.4 0 0 1 16 1 14.4 14.4 0 0 1 6.4 6.3c1.6 2.7 2.4 7.2 2.4 13.3v35.2h-9.3v-31.3c0-4.9-.3-8.5-1-10.5a8.4 8.4 0 0 0-3.8-4.9 11.7 11.7 0 0 0-6.3-1.7 14.4 14.4 0 0 0-7.7 2.3 18.4 18.4 0 0 0-5.9 6.7c-1.5 2.8-2.2 6.9-2.2 12.2zM37.7 216.1q9.1 2.3 13.2 7.5a18.8 18.8 0 0 1 4.1 12 20 20 0 0 1-2.8 10.3 21.4 21.4 0 0 1-8 7.8c-3.5 1.9-9.5 2.9-18 2.9H3.1v-76.9h20.5c9.3 0 15.5.7 18.7 2a14.7 14.7 0 0 1 7.2 5.9 16.3 16.3 0 0 1 2.4 8.7 21 21 0 0 1-3 10.5c-2.1 3.5-5.8 6.6-11.2 9.3zm-24.6-3h9.7c4.9 0 8.6-.7 11.1-2a15.8 15.8 0 0 0 5.9-5.6 15.4 15.4 0 0 0 2.2-7.6 9.5 9.5 0 0 0-3.5-7.4c-2.2-2.1-6.4-3.1-12.4-3.1h-13zm0 35.8h14.1c6.7 0 11.3-1.2 13.8-3.7a12.3 12.3 0 0 0 3.7-8.8 13.5 13.5 0 0 0-2.4-7.7 17.9 17.9 0 0 0-7.1-5.7c-3.1-1.4-8-2.2-14.7-2.2h-7.4zm78.1 9.2a25.7 25.7 0 0 1-18.5-7.3c-5.1-4.9-7.6-12.2-7.6-21.9s2.5-16.9 7.6-21.8a26.8 26.8 0 0 1 37 0c5.1 4.9 7.6 12.1 7.6 21.8s-2.5 17-7.6 21.9a25.7 25.7 0 0 1-18.5 7.3zm0-7.6a14.3 14.3 0 0 0 12-6c3-3.9 4.5-9.2 4.5-15.6s-1.5-11.7-4.5-15.6a15 15 0 0 0-24 0q-4.5 5.8-4.5 15.6c0 6.4 1.5 11.7 4.5 15.6a14.3 14.3 0 0 0 12 6zm76.1-73.9h9.3v80h-9.3v-9.7c-1.8 3.7-3.7 6.2-5.4 7.5a15 15 0 0 1-6.1 2.9 29.8 29.8 0 0 1-6.6.8 20.4 20.4 0 0 1-11.5-3.4 22 22 0 0 1-8.2-10.3 39.9 39.9 0 0 1-2.9-15.4c0-8.4 2-15.4 6.1-20.9s9.7-8.4 17-8.4a20.9 20.9 0 0 1 6.7 1 17.2 17.2 0 0 1 5.5 3c1.7 1.4 3.4 3.8 5.4 7.1zm0 52.3c0-6.3-1.3-11.5-4.1-15.5a13 13 0 0 0-11.3-6.1 14 14 0 0 0-11.2 5.4c-3 3.6-4.5 8.9-4.5 16s1.5 14.1 4.3 17.3a14.4 14.4 0 0 0 11.1 4.9 13.9 13.9 0 0 0 8.2-2.7 15.2 15.2 0 0 0 5.7-7.9 34.9 34.9 0 0 0 1.8-11.4zm41.1 25.3l-23.8-53h10.2l18.6 41.1 17.3-41.1h9.3l-23.4 55.5c-3.1 7.4-5.7 12.3-7.9 14.8a18.4 18.4 0 0 1-6.7 5.1 24.3 24.3 0 0 1-9.4 1.5h-7v-7.6h5.3a19.6 19.6 0 0 0 6.7-1.1 12.3 12.3 0 0 0 4.8-3.2c1.2-1.5 2.9-4.8 5.1-9.8z"/></svg>