<svg id="Layer_1" data-name="Layer 1" xmlns="http://www.w3.org/2000/svg" width="3.6in" height="1.5in" viewBox="0 0 256 111.5"><title>Logo</title><path d="M31.5,79.9a5.5,5.5,0,0,0-2.2-4.8,28.8,28.8,0,0,0-7.9-3.5,49.6,49.6,0,0,1-9.1-3.7c-6.1-3.2-9.1-7.7-9.1-13.2A12.8,12.8,0,0,1,5.6,47a15.8,15.8,0,0,1,7-5.3,26.3,26.3,0,0,1,10.3-2,23.8,23.8,0,0,1,10.2,2.1,16.9,16.9,0,0,1,7,5.9,15.7,15.7,0,0,1,2.4,8.6h-11c0-2.5-.7-4.4-2.3-5.7a9.2,9.2,0,0,0-6.5-2.1,10.5,10.5,0,0,0-6.3,1.7,5.5,5.5,0,0,0-2.2,4.5,5.2,5.2,0,0,0,2.6,4.4,27.9,27.9,0,0,0,7.8,3.3c6.2,1.9,10.8,4.2,13.6,7a13.9,13.9,0,0,1,4.3,10.4c0,4.7-1.7,8.3-5.2,10.9s-8.2,4-14.1,4a27.5,27.5,0,0,1-11.3-2.3,17.8,17.8,0,0,1-7.7-6.2,15.5,15.5,0,0,1-2.7-9.1H12.6c0,5.9,3.5,8.9,10.6,8.9a10.8,10.8,0,0,0,6.1-1.6A5.2,5.2,0,0,0,31.5,79.9Z"/><path d="M47.6,73.7a23.8,23.8,0,0,1,2.3-10.5A16.4,16.4,0,0,1,56.5,56a18.7,18.7,0,0,1,9.9-2.5c5.4,0,9.7,1.6,13.1,4.9s5.3,7.7,5.7,13.4v2.7c0,6.1-1.7,11-5.1,14.6s-8,5.6-13.7,5.6-10.3-1.9-13.7-5.5-5.2-8.7-5.2-15Zm10.7.8c0,3.7.7,6.6,2.1,8.6a6.9,6.9,0,0,0,6.1,3,7.2,7.2,0,0,0,6-2.9c1.4-2,2.2-5.2,2.2-9.5s-.8-6.6-2.2-8.6A6.9,6.9,0,0,0,66.4,62a6.7,6.7,0,0,0-6,3.1C59,67.1,58.3,70.2,58.3,74.5Z"/><path d="M114.8,93.9a10.4,10.4,0,0,1-1-3.5,13.1,13.1,0,0,1-10.1,4.3,14.2,14.2,0,0,1-9.6-3.4,10.9,10.9,0,0,1-3.9-8.5,11.3,11.3,0,0,1,4.7-9.7c3.1-2.3,7.6-3.4,13.5-3.4h4.9V67.4a6.3,6.3,0,0,0-1.4-4.4,5.4,5.4,0,0,0-4.4-1.7,7.1,7.1,0,0,0-4.3,1.3,4.5,4.5,0,0,0-1.5,3.5H91.1a10.4,10.4,0,0,1,2.1-6.3,15.4,15.4,0,0,1,6.1-4.7,22.1,22.1,0,0,1,8.7-1.6c4.9,0,8.8,1.2,11.7,3.7s4.3,5.9,4.3,10.3V84.8c0,3.7.5,6.6,1.6,8.5v.6Zm-8.7-7.3a9.2,9.2,0,0,0,4.3-1.1,6.6,6.6,0,0,0,2.9-2.8V75.9h-3.9c-5.4,0-8.2,1.8-8.5,5.5V82a4.5,4.5,0,0,0,1.4,3.3A5.9,5.9,0,0,0,106.1,86.6Z"/><path d="M167.9,74.4q0,9.3-4.2,14.7a13.3,13.3,0,0,1-11.2,5.6,12.4,12.4,0,0,1-9.8-4.2v18.7H132.1v-55H142l.3,3.9a12.6,12.6,0,0,1,10.1-4.6q7.3,0,11.4,5.4c2.7,3.6,4.1,8.6,4.1,15Zm-10.6-.7c0-3.7-.7-6.6-2-8.6a6.4,6.4,0,0,0-5.7-3c-3.3,0-5.6,1.3-6.9,3.8V82.2c1.3,2.6,3.6,3.9,7,3.9C154.7,86.1,157.3,82,157.3,73.7Z"/><path d="M174.4,43.9A5,5,0,0,1,176,40a5.9,5.9,0,0,1,4.3-1.5,6.3,6.3,0,0,1,4.4,1.5,5.3,5.3,0,0,1,1.6,3.9,5.3,5.3,0,0,1-1.7,4,5.9,5.9,0,0,1-4.3,1.5,6.1,6.1,0,0,1-4.3-1.5A5.2,5.2,0,0,1,174.4,43.9Zm11.2,50H175V54.2h10.6Z"/><path d="M197.3,93.9V62h-5.9V54.2h5.9V50.8c0-4.4,1.3-7.9,3.8-10.3s6.2-3.7,10.8-3.7a24.9,24.9,0,0,1,5.4.7l-.2,8.2a13.9,13.9,0,0,0-3.2-.3c-4,0-6,1.9-6,5.6v3.2h7.9V62h-7.9V93.9Z"/><path d="M236.2,78.9l7.3-24.7h11.4l-16,45.9-.9,2.1c-2.3,5.2-6.3,7.8-11.7,7.8a19.1,19.1,0,0,1-4.7-.7v-8.1h1.6a8.9,8.9,0,0,0,4.5-.9,6.2,6.2,0,0,0,2.3-3.1l1.3-3.3L217.4,54.2h11.4Z"/><circle cx="82.1" cy="36.4" r="17"/><circle cx="53.9" cy="13.3" r="10.1"/><path d="M82.1,22.6c9.3,8.4,5,26.8,5,26.8,12.1-5.3,9.5-16.8,8.3-19.1C92.4,22.6,82.1,22.6,82.1,22.6Z" fill="#fff"/></svg>